<svg xmlns="http://www.w3.org/2000/svg" width="30" height="25" viewBox="0 0 30 25">
  <g id="example_icon_-_Fix_Car_button" data-name="example icon - Fix Car button" transform="translate(-625.973 -328.722)">
    <path id="Icon_map-car-repair" data-name="Icon map-car-repair" d="M13.567,4.143l-1.53,1.69H8.463a3.514,3.514,0,0,0,3.9,1.664,19.678,19.678,0,0,1,3.447-.133c1.112.216.648.218,2.641,1.516l9.933,6.653A1.521,1.521,0,0,0,30.31,15.3a1.163,1.163,0,0,0-.04-1.807L17.7,5.322A3.313,3.313,0,0,1,16.438,3.28C15.91,1.874,13.968.745,12.062.745a5.075,5.075,0,0,0-3.8,2.024h3.772Zm8.626,12.412-3.887-5.478c-.153-.227-.541-.648-.86-.648H6.627c-.319,0-.707.421-.861.648L1.977,16.555h-.1c-.638,0-1.161.188-1.161.707v4.713c0,.519.522.707,1.161.707H3.235v1.649a1.426,1.426,0,0,0,1.547,1.414h.58a1.514,1.514,0,0,0,1.645-1.414V22.682h10.06v1.649a1.514,1.514,0,0,0,1.644,1.414h.58a1.426,1.426,0,0,0,1.548-1.414V22.682h1.354c.638,0,1.161-.188,1.161-.707V17.262C23.354,16.743,22.832,16.555,22.193,16.555ZM3.912,20.09a1.336,1.336,0,0,1-1.451-1.178,1.336,1.336,0,0,1,1.451-1.178,1.336,1.336,0,0,1,1.451,1.178A1.336,1.336,0,0,1,3.912,20.09Zm1.161-3.535,2.352-4a1.273,1.273,0,0,1,.84-.6h7.545a1.275,1.275,0,0,1,.84.6l2.352,4ZM20.162,20.09a1.336,1.336,0,0,1-1.451-1.178,1.336,1.336,0,0,1,1.451-1.178,1.336,1.336,0,0,1,1.451,1.178,1.336,1.336,0,0,1-1.451,1.178Z" transform="translate(625.253 327.977)" fill="#707070"/>
  </g>
</svg>
